<svg xmlns="http://www.w3.org/2000/svg" width="430" height="430" fill="none" viewBox="0 0 430 430"><g stroke="#fff" stroke-linejoin="round" stroke-width="12"><path stroke-linecap="round" d="m85 210 50-50m20 50 50-50m20 50 50-50m20 50 50-50"/><path stroke-linecap="round" stroke-miterlimit="10" d="M55 160h320v190c0 11.046-8.954 20-20 20H75c-11.046 0-20-8.954-20-20z"/><path stroke-linecap="round" d="m337.23 84.381-61.237-35.355m-6.378 53.473-61.237-35.356M202 120.616l-61.237-35.355m-6.377 53.472-61.238-35.355"/><path stroke-linecap="round" stroke-miterlimit="10" d="M47.233 131.023c-2.858-10.669 3.473-21.636 14.143-24.494l270.459-72.47c10.669-2.859 21.636 3.473 24.495 14.142l7.764 28.978-309.096 82.822zM375 210H55"/><path d="m255 290-60 45v-90z"/></g></svg>